<mxfile host="65bd71144e" modified="2021-11-09T03:29:06.312Z" agent="5.0 (Windows NT 10.0; Win64; x64) AppleWebKit/537.36 (KHTML, like Gecko) Code/1.62.0 Chrome/91.0.4472.164 Electron/13.5.1 Safari/537.36" etag="9AsRHAyOOXYeQnkQggAE" version="15.7.0" type="embed" pages="3">
    <diagram id="AcfQv27ruQDgGUEOMnrh" name="S06-01ボトルネック一覧">
        <mxGraphModel dx="698" dy="890" grid="1" gridSize="10" guides="1" tooltips="1" connect="1" arrows="1" fold="1" page="1" pageScale="1" pageWidth="827" pageHeight="1169" math="0" shadow="0">
            <root>
                <mxCell id="0"/>
                <mxCell id="1" parent="0"/>
                <mxCell id="2" value="" style="rounded=0;whiteSpace=wrap;html=1;fillColor=#F7F7F7;fontColor=#333333;strokeColor=#666666;" parent="1" vertex="1">
                    <mxGeometry x="233" y="316" width="757" height="474" as="geometry"/>
                </mxCell>
                <mxCell id="3" value="ボトルネック検索" style="text;html=1;strokeColor=none;fillColor=none;align=center;verticalAlign=middle;whiteSpace=wrap;rounded=0;fontStyle=0;fontSize=30;" parent="1" vertex="1">
                    <mxGeometry x="424.5" y="326" width="267" height="40" as="geometry"/>
                </mxCell>
                <mxCell id="4" value="" style="shape=image;verticalLabelPosition=bottom;labelBackgroundColor=#ffffff;verticalAlign=top;aspect=fixed;imageAspect=0;image=data:image/png,iVBORw0KGgoAAAANSUhEUgAAATsAAAA+CAYAAABUZrzAAAAVNklEQVR4Ae2d+XMbx5XH9X/v4WxVdp1ftjaJ4yhZSZZEHaZIiDdAEuB94gZxEcR93/cNDAb4bPWAkCVZLmcVmiblnqquAaGZRs+nn771el736we8d0wmE8bjCao6ZqSqjEaySAbSBqQN3BMbUFVNu8bjMULLPj4ezL6YCZ3o2MFQoT8Y0usPZJEMpA1IG7gXNiA0S2iXMhqhCsGbidv1WRM7IXTigm5vQLvTo9XpaqXd6Wp/i+9kkQykDUgbuMs20BLa1Z5ql3DUhspU9Gaa92Dq0Y015S7XGhQrNSq1BrVGi3qzTaPVkUUykDYgbeAO20Bb0yqhWaVqXdOwWqOpOWxDRZlpHQ/EsFWoYKPV1i4UFwuR07y6bo9Oty+LZCBtQNrAHbeB6YhUaFe13tQcNnEW2jY7HohxrvDkhMiJfxRu4GAw1AIU6vULPxGwkEUykDYgbeDu2oCqaZaijOj3BwjPrlCu0un23gUrHrS7PTKFMrliRfPuhPiJB5KHJCAJSAL3kYAYrdabLfLFijZCFa/qRHD2QbPdJZ7Ok8mXNBUU3pz4R3lIApKAJHAfCYhpc41mm3ypqgVWxXQ6TezqzQ6RRJZUtqiNb6XQ3cfulW2WBCSBGQExMhWBVTGMFdHj98SuTTieeSd2sxvkWRKQBCSB+0jgZ8Uuee3Z3ceHk22WBCQBSWBGQIrdjIQ8SwKSwBdNQIrdF9298uEkAUlgRkCK3YyEPEsCksAXTUCK3RfdvfLhJAFJYEZAit2MhDxLApLAF01Ait0X3b3y4SQBSWBGQIrdjIQ8SwKSwBdNQIrdF9298uEkAUlgRuBOiJ1Yn/Z+mTXuPp4nkzHj8Yj+YKClxBKJA8WaPHlIApLAr0vgVxO7acYBsRB3WsQ6telatenfvy6Wz//18VhFVUQqmQbRVJ5MoUJvMPz8CuWdkoAkcCMEblnsRNaUMaNhj16jRCWbJBIK4vb4cLm9OD2XeIJxrlJFyo0OIqPU+J4lWhmPhii9FqlMlhOHH1cgpi0+vpHekpVIApLAZxO4dbGbTEYMWmWqMS+X5j02lnU8efqch4+f89fvXvPdkonFAzfeeIG+OmF0z1LoqcM+g1aVy0CQBcMRxhMXxUpdpsf6bBOVN0oCN0PgFsVugtLv0KnmSEf82E+PMW5usbS6wfzbVd7oVlhYWmfBcMjK0QV+IXYjIXb3y7UbDXr0m2U8vkvmlnfZ2LeRL9Wk2N2MvcpaJIHPJnBLYiciEGM6tTy5gBXzgYkXC5s8XtzFcHyB1RvCf3lFKBDA4fFjdl+RyJfpK2Mpdp/dtfJGSUASeJ/A7YjdZAyTEfV8gqDZiEm/zsOFAx7pLzj1Z0iXGlSrNZq1Crl8nlg6R6XRQlEnqNee3VgZMOo1aVRLZNJpEsk0sWSGdL5CudWnPRAbeE/DuiIiqo6GdFsNauUC2WyGWCKlXR9L5chVmtR6Kr3RNFMpoz6TXo1es0K5UiVfLFPI5cjn8mQLFQrVFp3+UNtzcjQaMuy3qVfLZNNpkqmUVncyVyZb7Wj7dnTqJTzeqWe3tnNGOp2iXRd1Zkkm08STWZK5EpVmV2vDfRuqv29A8rMkcF8I3J7YjRXK6TCuvTUMGwaemgIs2Ctc5bt0+wrD4RBlKDbf7tPp9bW9HYXOaRmSxf617QrdQpDghRnj5ibLqwYWVo0YjpzYIyUStSGdwXTH74k6ot9pkI1d4bEes2syTofIK9u8Wd9n3xnGV+xT6Kia5zjplpkUvBQjTmwuN4dnNo739zncP2DnxMmJO0aq1KSvjOi16zSKSfwuKzubBtbW9cwvbbC2b2PHncIXy1MvF/B4/dowdmVzj2jAQTJg52Rvh9VVA7q1HdZ2rbjCOQptlY4y+dHGvffFgGQ7JYH7QuD2xG6iUMlEcR8Z2DJs8mzbw4I5iz/doNEd0BuOUNQx4w/2uZgwHgmPrk0pHSboPOF4z4huaY3Xiyu8WlhBp99n89yPLZQnX+vRV1RNNDuNCtGAm/NDE5sGPfNvxfXLvJhfRme0oLcl8aYatIdjlEYGNX5EzG5kbXOH+TUTG4ZttncO2D52cuqOkiqUabcb5FMRgm4rx/u7LC2vsvB2hde6FXTGM9YsUZzBNNVSHrfbw5xOz5vlDWznx7gsRxi3NlnULfHy9QKvdevsWC7xpJsUW0NN7O7X28n7YuKynZLAlMBU7No/nZb9ZjIVT6ectCpZEu5Tjo0Gnrxc59HCHjvWK/ypMrlah/ZAZTgS3tl190zGDNtV2oUITssZbxZXeGvYY+vcw7HNhdN+xvHhPkurRvS7FnzxIqX2UNsgqFWvEg2HcDgcuL0+fFdXuOxnWPYNvF028qenop4QmfaQViWBEjZxebjM05dvebxoYtvqwxnNEMmWKVRqtBoF6sUorrMj9G9XMJiO2LJ4OHN58fn9OHxhTrxJrmJZ6uU8bqeduZff8+TFG5YNB+ydOrG5fbicNk6NK5hWvmfddILBGiOcq2siP3tsaZySgCRw8wRuSexEwycM2lWqyUs85kN080s8f7nMqumUQ2cAZzBJJFOmUOvQ6Y+mojdWaZdTFK7M7O7s8OdnK7wxWrFGikSyeUrZMAHnGWuLOpaXNzH740QrXeqtLp1mnWQyhT8QJJZIks1liPjteE82+P7lIv/6+zleb1gJVPqUi3EGVwY8uws8/O4Nf9cdcBTMkWgrtBSV0bBLrxIjH7Swa9Dz7JkO/aEdW7xEvFCh1axpW04GkyXSuSKtagG3w8rc8zkePX/Dm00z+84okWyJQiFJ/MKEc/cNy3oTLzZdeKIF1Mnk3s0pvHlzlDVKAr8cgVsUO1AVMQetQjEdw+d0cHpwxI5RDBm30G2YeGs84cQdJZRvUWkPUNUR5VSQ0LmBnYMjvjM62XEnSVU7NDpdep0Guegl1u01DrYMHLuDuLMNyq0uw36XWilHOhYieOnD6bBxtLeFYfk1f3v4mH/53Z95vnyII9sjk4nTDxjwHy7zZH6DF1s2PKkKtaHKQB0z7NQoBy0EjlbZ0Jt4unrOiSdBvtmn2e1rw+Zur0+93aPZbNKtl3A7ncy9WOTV202OvVFCpSbVTo9up0Kj4CJ2ucPG9i5P355yEUhr7w7v2SybX84qZc2SwC9A4FbFTnh3TFSUfptWOU86dIn9ZI/NtSVefP+G/331Ft2OhQNPimihQV9RSIfcOLfn2drd5/lRgD1/mnSxQqVW10oyFMC1s8aJcYM9px9LokS+0WTQbVLJJ4lfeXHaLOzt76PXr6FbfMW3f/krX/3b1zzTmThPdEkk4/QuDQRO13mxuofu0Ees0GAglrBNVPqNIknrNrbV5ywbDnm+H+UiUUcEfz+e8/xunp3LzdyrdZY2jwnkKzTGExSxNG7cQR1GKeZtGHb2efx6D6cvoUWeP3xf+Qv0tqxSEvgNE7h9sWPMeKQw7HVo1SsUMimiQT8exwknh9usGHaYXz/BFkhQ7vYJ++3Y9M95q3vD/7xc47Fuk5XNqVek395leWWD+RevWXy7zqbNjzWeI1NIU8qEsFvO0BuMbO2fsnPu5NRmxuE8Yun1K/741dcs6IyYEx3i12IXPNczrz9m9fSKRLmlidOYEd16nsjpJqeLz1jdPuONJY8/2/5kUOGd2Ll9zC1usbpzTqJYZTCZoHItdkqcYsGOwbTPo5e7OLxxLTgzm2bzG7ZH+eiSwC9G4JbF7sfPIaaWqMMu/VqUXOgcw/oGDx/r2LV4iTc6+NwWLGtP+H7uEb//8yP+8Jcn/OlvT/nm78+uyxzf/P0Vz3RbbDmucCbSpBJ+4r5T1tfXefh0UYuUHnqiXMYjFEtBjvQrPPrd1yzPxC4x9ezCZgO6rXP05jCpahtFCDMKnVqW4JGeo/mnrJnMLLkqXBV6n5wu8k7srufZfbiCQszr66KOEhSLjqnYvdjB4Ylr7yil2P3YPuQ3ksBNEfhVxG6W6USbQydSA6gKo16NajbCscnE6+fz7Fov8NbaXHjtOLZesbq+xrfL+8wbzzk0OzDbnNflArPNjcsXJpwtky7kyYftRB0mtvf2ebUl3q9FSBQqFItJGgUf+xtL/Pfvvub7RSPnwrP7SbGbMEal1yiQsGxjWXnOyuYhL49iuJN1RkKor7O2iEiqKELseo0y7s8Uuw/ZzGqdnt//t+nnaWqsmzIGWY8k8CUTuFWx01Y2qCNGo+uiqtqqhLGqMlIUGpUKjsMD1l69Ys/uwlJt4Qy48ewvYzo65cVZlONQiVJTTEQe0BtMJyH3ej36/QFDRZlmUwmcEDlbY+/cwoojxlWuxkgZMqhn6KSdmFYX+I+vvubZopGzd8PYTX7s2Yl3chMtqFJw7+PZes3yuonH+guswTwdRWUwUlGvn2M0HjPod/8fYrfHoxcmHJ6Y5tkJLupIQRmJaLSq5cGbTET9I4ZDBUUZMVLH2u+NRorGTBmp1+/7vmQzlc8mCfzzBG5J7KaBCbF8K5eME4uECUYThJNZMgUxHaNAKh7Cf2FFv77J85dLHDj8RJs9EqkoKc8x+/v7PNbtsHLowhHOEs2VKFRK5PJZYtEI8USSYrVJtVKiFDITturR7+wzt2XH4o9RqpSJhz14LUZ0L5/x+6/+i7kfid0muu1zDJYI6WqbkZaQasJo0KKd9ZN077GlN/D4lZ6tkwu8yRKJfImqWDpWrBDJVMkWyrSqxalnt7LLxoGNfHmWCOC9YWzJOQ1QvNzB6YkzGCra/Lxc1Ic/kuAkVCWSrdJvVTRmVrMLpzdErNIgXS6TuPIR8nhwXWXxpttU2sonh9X/vInIGiSBL4PA7YidWBs7VqjkU7jNxxzs7rC5f4rp3InDe4XX58NybMS4/obvXi/xpxdbHDvDNLsKzWqBVibA8c42f/nmEd/Nb7B65ufUHyWUiBIIeDk7OcJisRFKFsgWSxRjdsKOTd6uGfjmpRHjqZNQLMLZ+SHrK6958vBb/vDv/8kr3fUwVgQoApuELULszB+InRhAMh4yUUrUi5ccbq3x5NtHfL9sZO08gNkTJBYN4fSH2bVH8ISS2npct8h6srLHxoH9PbETw84e6ihJseRkU0Rjr8VOeKaZiIeLgyVWdk7543aUXWeMRj6C6/SYRw9fMqfb5iiSwRYMc6ZfYnthgVcGJ4vWAuFiT4sMa+39MmxTPoUkcKMEbk/sJiOa1SLRSzcOq5nDUwv753bMDjc25wXnZ6ccHR5gOrZisgQIpcsMxDCx22bQLBG99HJo2mFv/4Q9s5tTlw+Xz4/L48XmcOO5DGsJBWqtNs1KikLci9lsYd14wrHZyYXPj83l4MxywrbewNu5eQ6OHQQKfQrFAoOUjeyVjWN7AOtVjnKrh0imronHRGWidui1CkT8Lk739jg8NrNrcXPu9OD2enH4I1gCWSLpEq1GTZvIvHN2gcUdotZov+u0yWTAWC1Sr0ewOd1s7rqIxAsoQ4VyNk7UfcKZ08+SPYcrnNdSYkX8Xgwbu5iO7HiyZYLpDH7LCfbDQ3atYY6CNbL1gdZWKXbvUMsPksAHBG5H7MR/w8mYXrtJMZMgHPBhszs4PrdwfG7lxGzn1OrCenHJVSJPtt6j1R9d70shlo+p9JpV6pkoMXGvzcGZ2c6JCFQ4fbgCCSLpMtX2QHuHpiUUaNXIxCP4LpzY7Q7OrE5cgSDBdAq/7xLPmZVIKEmuqdBoNVCqcWr5GKF4jli+TrsvYrHXYqchm2iBlF6rSi2fJHx1icVm59xq59TiwOGP4k/VyFZa9LtdyuUql5EUsXSBbm/wA/TJiMm4RbdbJJ5I471MUiw3UUeqlhmlmAoTTmRxxOskiw0G7TrFbAb3xSW+YJx0rUW+WiMbDZG4CnIZKxDMd6l3R3IY+wNl+UkS+BGBWxI7oRoTlGGfdqNGuZjXUiNFYnEisQSRWJJoIkMiU6RUb0/XyIqc7O8OMT2lx6BVo1bKk0omicWn94mUTelCjXKjS3cw0lJCaQGPQV9LGVXIpkklU0TjKdKFIqVGg2KhSD6RplKu0xqM6Q/6qN0aQsjKtSbVVk8TzY+9JC3AItrRaVApFUgkkpoHF4knSeXLFOo9mp0BijKk0+lqGYqrjbaWweXdo4iQx2SAMmxTrTXIF+q0O33GIrjR62iCV643Sdd61Nt9LYV9u9kglytSKNdo9Aa0uj2a1TK1UolitU25NaSniFCKPCQBSeCnCNye2Gl6J7wjVYvGipROg8F7ZahooiCijWIlwbtkANctF0IzEZvZiAnJ798r7tMil9f3vXf9WER9leH0+uFQi9Yq178vor8iivoujdRYRWyWo0U7x9NUUZ+CNmuHiIZq7RBt0eq+jpSORdvF5kFjtN9SP1WXuEbk31NRFPG7U5majMdTPmKJmoi6anWJ3cqmzEYi8qttTDS9ThXPp04TnMqlZp/qLfmdJPADgVsVux9+dvrpw3lj//icsQ/u+2Co+fEvTD1KoZzv3/OJqz7rq5+r8x/xtD4W9VlD/pF7Z9fKsyQgCfw8gV9V7H6+efIKSUASkARuhoAUu5vhKGuRBCSBO05Ait0d7yDZPElAErgZAlLsboajrEUSkATuOAEpdne8g2TzJAFJ4GYISLG7GY6yFklAErjjBKTY3fEOks2TBCSBmyEgxe5mOMpaJAFJ4I4TkGJ3xztINk8SkARuhsDPil0qW6TXf28h+838rqxFEpAEJIFbJfDTYtfqEElmSeWKWtYOsTRKHpKAJCAJ3FcCYh15o9WmUK7S7vS0NelC1h402h1i6TzpfIl2t6elT5eCd1+7WbZbEvhtExCumkjMUW9+Quw6vT75UlUrtWYLsQm02O9AW/z+2+Ymn14SkATuEQGhWSLDUH8wpNpoaZomPDtNy4Rnp+2J0GxTrjUoVevUGi3tYlWkIfooi8j0pg8zi8jvJA9pA9IG7oINiFRuQs863R4VkUOyNB3GiraJ44GmhP0BrXaXar2piV6l3tQ+i79lkQykDUgbuG82IJw28d5OeHmz48FMkYUiNlodLUuuiMxGk1kiiQzhuCySgbQBaQN32waEVkWTOZLZArlSRRM6kWxXeHuz48Hsw2ys2+p0taGsGNaWqw1KlboskoG0AWkDd9sGqnVtVCo8uma7Q38w0N7fiVdxs+Od2ImvhJcnUoeLeSpaGnAttblIFS6LZCBtQNrAHbUBoVNiA/vrTeyFhmkj1pnKXZ/fid1H32t7QwhRnA1z5Vm+hJY2IG3gLtvAxxr28d//By+rvqw8IH7qAAAAAElFTkSuQmCC;fontSize=16;" parent="1" vertex="1">
                    <mxGeometry x="289" y="400" width="170" height="33.47" as="geometry"/>
                </mxCell>
                <mxCell id="5" value="" style="shape=image;verticalLabelPosition=bottom;labelBackgroundColor=#ffffff;verticalAlign=top;aspect=fixed;imageAspect=0;image=data:image/png,iVBORw0KGgoAAAANSUhEUgAAATsAAAA+CAYAAABUZrzAAAAVNklEQVR4Ae2d+XMbx5XH9X/v4WxVdp1ftjaJ4yhZSZZEHaZIiDdAEuB94gZxEcR93/cNDAb4bPWAkCVZLmcVmiblnqquAaGZRs+nn771el736we8d0wmE8bjCao6ZqSqjEaySAbSBqQN3BMbUFVNu8bjMULLPj4ezL6YCZ3o2MFQoT8Y0usPZJEMpA1IG7gXNiA0S2iXMhqhCsGbidv1WRM7IXTigm5vQLvTo9XpaqXd6Wp/i+9kkQykDUgbuMs20BLa1Z5ql3DUhspU9Gaa92Dq0Y015S7XGhQrNSq1BrVGi3qzTaPVkUUykDYgbeAO20Bb0yqhWaVqXdOwWqOpOWxDRZlpHQ/EsFWoYKPV1i4UFwuR07y6bo9Oty+LZCBtQNrAHbeB6YhUaFe13tQcNnEW2jY7HohxrvDkhMiJfxRu4GAw1AIU6vULPxGwkEUykDYgbeDu2oCqaZaijOj3BwjPrlCu0un23gUrHrS7PTKFMrliRfPuhPiJB5KHJCAJSAL3kYAYrdabLfLFijZCFa/qRHD2QbPdJZ7Ok8mXNBUU3pz4R3lIApKAJHAfCYhpc41mm3ypqgVWxXQ6TezqzQ6RRJZUtqiNb6XQ3cfulW2WBCSBGQExMhWBVTGMFdHj98SuTTieeSd2sxvkWRKQBCSB+0jgZ8Uuee3Z3ceHk22WBCQBSWBGQIrdjIQ8SwKSwBdNQIrdF9298uEkAUlgRkCK3YyEPEsCksAXTUCK3RfdvfLhJAFJYEZAit2MhDxLApLAF01Ait0X3b3y4SQBSWBGQIrdjIQ8SwKSwBdNQIrdF9298uEkAUlgRuBOiJ1Yn/Z+mTXuPp4nkzHj8Yj+YKClxBKJA8WaPHlIApLAr0vgVxO7acYBsRB3WsQ6telatenfvy6Wz//18VhFVUQqmQbRVJ5MoUJvMPz8CuWdkoAkcCMEblnsRNaUMaNhj16jRCWbJBIK4vb4cLm9OD2XeIJxrlJFyo0OIqPU+J4lWhmPhii9FqlMlhOHH1cgpi0+vpHekpVIApLAZxO4dbGbTEYMWmWqMS+X5j02lnU8efqch4+f89fvXvPdkonFAzfeeIG+OmF0z1LoqcM+g1aVy0CQBcMRxhMXxUpdpsf6bBOVN0oCN0PgFsVugtLv0KnmSEf82E+PMW5usbS6wfzbVd7oVlhYWmfBcMjK0QV+IXYjIXb3y7UbDXr0m2U8vkvmlnfZ2LeRL9Wk2N2MvcpaJIHPJnBLYiciEGM6tTy5gBXzgYkXC5s8XtzFcHyB1RvCf3lFKBDA4fFjdl+RyJfpK2Mpdp/dtfJGSUASeJ/A7YjdZAyTEfV8gqDZiEm/zsOFAx7pLzj1Z0iXGlSrNZq1Crl8nlg6R6XRQlEnqNee3VgZMOo1aVRLZNJpEsk0sWSGdL5CudWnPRAbeE/DuiIiqo6GdFsNauUC2WyGWCKlXR9L5chVmtR6Kr3RNFMpoz6TXo1es0K5UiVfLFPI5cjn8mQLFQrVFp3+UNtzcjQaMuy3qVfLZNNpkqmUVncyVyZb7Wj7dnTqJTzeqWe3tnNGOp2iXRd1Zkkm08STWZK5EpVmV2vDfRuqv29A8rMkcF8I3J7YjRXK6TCuvTUMGwaemgIs2Ctc5bt0+wrD4RBlKDbf7tPp9bW9HYXOaRmSxf617QrdQpDghRnj5ibLqwYWVo0YjpzYIyUStSGdwXTH74k6ot9pkI1d4bEes2syTofIK9u8Wd9n3xnGV+xT6Kia5zjplpkUvBQjTmwuN4dnNo739zncP2DnxMmJO0aq1KSvjOi16zSKSfwuKzubBtbW9cwvbbC2b2PHncIXy1MvF/B4/dowdmVzj2jAQTJg52Rvh9VVA7q1HdZ2rbjCOQptlY4y+dHGvffFgGQ7JYH7QuD2xG6iUMlEcR8Z2DJs8mzbw4I5iz/doNEd0BuOUNQx4w/2uZgwHgmPrk0pHSboPOF4z4huaY3Xiyu8WlhBp99n89yPLZQnX+vRV1RNNDuNCtGAm/NDE5sGPfNvxfXLvJhfRme0oLcl8aYatIdjlEYGNX5EzG5kbXOH+TUTG4ZttncO2D52cuqOkiqUabcb5FMRgm4rx/u7LC2vsvB2hde6FXTGM9YsUZzBNNVSHrfbw5xOz5vlDWznx7gsRxi3NlnULfHy9QKvdevsWC7xpJsUW0NN7O7X28n7YuKynZLAlMBU7No/nZb9ZjIVT6ectCpZEu5Tjo0Gnrxc59HCHjvWK/ypMrlah/ZAZTgS3tl190zGDNtV2oUITssZbxZXeGvYY+vcw7HNhdN+xvHhPkurRvS7FnzxIqX2UNsgqFWvEg2HcDgcuL0+fFdXuOxnWPYNvF028qenop4QmfaQViWBEjZxebjM05dvebxoYtvqwxnNEMmWKVRqtBoF6sUorrMj9G9XMJiO2LJ4OHN58fn9OHxhTrxJrmJZ6uU8bqeduZff8+TFG5YNB+ydOrG5fbicNk6NK5hWvmfddILBGiOcq2siP3tsaZySgCRw8wRuSexEwycM2lWqyUs85kN080s8f7nMqumUQ2cAZzBJJFOmUOvQ6Y+mojdWaZdTFK7M7O7s8OdnK7wxWrFGikSyeUrZMAHnGWuLOpaXNzH740QrXeqtLp1mnWQyhT8QJJZIks1liPjteE82+P7lIv/6+zleb1gJVPqUi3EGVwY8uws8/O4Nf9cdcBTMkWgrtBSV0bBLrxIjH7Swa9Dz7JkO/aEdW7xEvFCh1axpW04GkyXSuSKtagG3w8rc8zkePX/Dm00z+84okWyJQiFJ/MKEc/cNy3oTLzZdeKIF1Mnk3s0pvHlzlDVKAr8cgVsUO1AVMQetQjEdw+d0cHpwxI5RDBm30G2YeGs84cQdJZRvUWkPUNUR5VSQ0LmBnYMjvjM62XEnSVU7NDpdep0Guegl1u01DrYMHLuDuLMNyq0uw36XWilHOhYieOnD6bBxtLeFYfk1f3v4mH/53Z95vnyII9sjk4nTDxjwHy7zZH6DF1s2PKkKtaHKQB0z7NQoBy0EjlbZ0Jt4unrOiSdBvtmn2e1rw+Zur0+93aPZbNKtl3A7ncy9WOTV202OvVFCpSbVTo9up0Kj4CJ2ucPG9i5P355yEUhr7w7v2SybX84qZc2SwC9A4FbFTnh3TFSUfptWOU86dIn9ZI/NtSVefP+G/331Ft2OhQNPimihQV9RSIfcOLfn2drd5/lRgD1/mnSxQqVW10oyFMC1s8aJcYM9px9LokS+0WTQbVLJJ4lfeXHaLOzt76PXr6FbfMW3f/krX/3b1zzTmThPdEkk4/QuDQRO13mxuofu0Ees0GAglrBNVPqNIknrNrbV5ywbDnm+H+UiUUcEfz+e8/xunp3LzdyrdZY2jwnkKzTGExSxNG7cQR1GKeZtGHb2efx6D6cvoUWeP3xf+Qv0tqxSEvgNE7h9sWPMeKQw7HVo1SsUMimiQT8exwknh9usGHaYXz/BFkhQ7vYJ++3Y9M95q3vD/7xc47Fuk5XNqVek395leWWD+RevWXy7zqbNjzWeI1NIU8qEsFvO0BuMbO2fsnPu5NRmxuE8Yun1K/741dcs6IyYEx3i12IXPNczrz9m9fSKRLmlidOYEd16nsjpJqeLz1jdPuONJY8/2/5kUOGd2Ll9zC1usbpzTqJYZTCZoHItdkqcYsGOwbTPo5e7OLxxLTgzm2bzG7ZH+eiSwC9G4JbF7sfPIaaWqMMu/VqUXOgcw/oGDx/r2LV4iTc6+NwWLGtP+H7uEb//8yP+8Jcn/OlvT/nm78+uyxzf/P0Vz3RbbDmucCbSpBJ+4r5T1tfXefh0UYuUHnqiXMYjFEtBjvQrPPrd1yzPxC4x9ezCZgO6rXP05jCpahtFCDMKnVqW4JGeo/mnrJnMLLkqXBV6n5wu8k7srufZfbiCQszr66KOEhSLjqnYvdjB4Ylr7yil2P3YPuQ3ksBNEfhVxG6W6USbQydSA6gKo16NajbCscnE6+fz7Fov8NbaXHjtOLZesbq+xrfL+8wbzzk0OzDbnNflArPNjcsXJpwtky7kyYftRB0mtvf2ebUl3q9FSBQqFItJGgUf+xtL/Pfvvub7RSPnwrP7SbGbMEal1yiQsGxjWXnOyuYhL49iuJN1RkKor7O2iEiqKELseo0y7s8Uuw/ZzGqdnt//t+nnaWqsmzIGWY8k8CUTuFWx01Y2qCNGo+uiqtqqhLGqMlIUGpUKjsMD1l69Ys/uwlJt4Qy48ewvYzo65cVZlONQiVJTTEQe0BtMJyH3ej36/QFDRZlmUwmcEDlbY+/cwoojxlWuxkgZMqhn6KSdmFYX+I+vvubZopGzd8PYTX7s2Yl3chMtqFJw7+PZes3yuonH+guswTwdRWUwUlGvn2M0HjPod/8fYrfHoxcmHJ6Y5tkJLupIQRmJaLSq5cGbTET9I4ZDBUUZMVLH2u+NRorGTBmp1+/7vmQzlc8mCfzzBG5J7KaBCbF8K5eME4uECUYThJNZMgUxHaNAKh7Cf2FFv77J85dLHDj8RJs9EqkoKc8x+/v7PNbtsHLowhHOEs2VKFRK5PJZYtEI8USSYrVJtVKiFDITturR7+wzt2XH4o9RqpSJhz14LUZ0L5/x+6/+i7kfid0muu1zDJYI6WqbkZaQasJo0KKd9ZN077GlN/D4lZ6tkwu8yRKJfImqWDpWrBDJVMkWyrSqxalnt7LLxoGNfHmWCOC9YWzJOQ1QvNzB6YkzGCra/Lxc1Ic/kuAkVCWSrdJvVTRmVrMLpzdErNIgXS6TuPIR8nhwXWXxpttU2sonh9X/vInIGiSBL4PA7YidWBs7VqjkU7jNxxzs7rC5f4rp3InDe4XX58NybMS4/obvXi/xpxdbHDvDNLsKzWqBVibA8c42f/nmEd/Nb7B65ufUHyWUiBIIeDk7OcJisRFKFsgWSxRjdsKOTd6uGfjmpRHjqZNQLMLZ+SHrK6958vBb/vDv/8kr3fUwVgQoApuELULszB+InRhAMh4yUUrUi5ccbq3x5NtHfL9sZO08gNkTJBYN4fSH2bVH8ISS2npct8h6srLHxoH9PbETw84e6ihJseRkU0Rjr8VOeKaZiIeLgyVWdk7543aUXWeMRj6C6/SYRw9fMqfb5iiSwRYMc6ZfYnthgVcGJ4vWAuFiT4sMa+39MmxTPoUkcKMEbk/sJiOa1SLRSzcOq5nDUwv753bMDjc25wXnZ6ccHR5gOrZisgQIpcsMxDCx22bQLBG99HJo2mFv/4Q9s5tTlw+Xz4/L48XmcOO5DGsJBWqtNs1KikLci9lsYd14wrHZyYXPj83l4MxywrbewNu5eQ6OHQQKfQrFAoOUjeyVjWN7AOtVjnKrh0imronHRGWidui1CkT8Lk739jg8NrNrcXPu9OD2enH4I1gCWSLpEq1GTZvIvHN2gcUdotZov+u0yWTAWC1Sr0ewOd1s7rqIxAsoQ4VyNk7UfcKZ08+SPYcrnNdSYkX8Xgwbu5iO7HiyZYLpDH7LCfbDQ3atYY6CNbL1gdZWKXbvUMsPksAHBG5H7MR/w8mYXrtJMZMgHPBhszs4PrdwfG7lxGzn1OrCenHJVSJPtt6j1R9d70shlo+p9JpV6pkoMXGvzcGZ2c6JCFQ4fbgCCSLpMtX2QHuHpiUUaNXIxCP4LpzY7Q7OrE5cgSDBdAq/7xLPmZVIKEmuqdBoNVCqcWr5GKF4jli+TrsvYrHXYqchm2iBlF6rSi2fJHx1icVm59xq59TiwOGP4k/VyFZa9LtdyuUql5EUsXSBbm/wA/TJiMm4RbdbJJ5I471MUiw3UUeqlhmlmAoTTmRxxOskiw0G7TrFbAb3xSW+YJx0rUW+WiMbDZG4CnIZKxDMd6l3R3IY+wNl+UkS+BGBWxI7oRoTlGGfdqNGuZjXUiNFYnEisQSRWJJoIkMiU6RUb0/XyIqc7O8OMT2lx6BVo1bKk0omicWn94mUTelCjXKjS3cw0lJCaQGPQV9LGVXIpkklU0TjKdKFIqVGg2KhSD6RplKu0xqM6Q/6qN0aQsjKtSbVVk8TzY+9JC3AItrRaVApFUgkkpoHF4knSeXLFOo9mp0BijKk0+lqGYqrjbaWweXdo4iQx2SAMmxTrTXIF+q0O33GIrjR62iCV643Sdd61Nt9LYV9u9kglytSKNdo9Aa0uj2a1TK1UolitU25NaSniFCKPCQBSeCnCNye2Gl6J7wjVYvGipROg8F7ZahooiCijWIlwbtkANctF0IzEZvZiAnJ798r7tMil9f3vXf9WER9leH0+uFQi9Yq178vor8iivoujdRYRWyWo0U7x9NUUZ+CNmuHiIZq7RBt0eq+jpSORdvF5kFjtN9SP1WXuEbk31NRFPG7U5majMdTPmKJmoi6anWJ3cqmzEYi8qttTDS9ThXPp04TnMqlZp/qLfmdJPADgVsVux9+dvrpw3lj//icsQ/u+2Co+fEvTD1KoZzv3/OJqz7rq5+r8x/xtD4W9VlD/pF7Z9fKsyQgCfw8gV9V7H6+efIKSUASkARuhoAUu5vhKGuRBCSBO05Ait0d7yDZPElAErgZAlLsboajrEUSkATuOAEpdne8g2TzJAFJ4GYISLG7GY6yFklAErjjBKTY3fEOks2TBCSBmyEgxe5mOMpaJAFJ4I4TkGJ3xztINk8SkARuhsDPil0qW6TXf28h+838rqxFEpAEJIFbJfDTYtfqEElmSeWKWtYOsTRKHpKAJCAJ3FcCYh15o9WmUK7S7vS0NelC1h402h1i6TzpfIl2t6elT5eCd1+7WbZbEvhtExCumkjMUW9+Quw6vT75UlUrtWYLsQm02O9AW/z+2+Ymn14SkATuEQGhWSLDUH8wpNpoaZomPDtNy4Rnp+2J0GxTrjUoVevUGi3tYlWkIfooi8j0pg8zi8jvJA9pA9IG7oINiFRuQs863R4VkUOyNB3GiraJ44GmhP0BrXaXar2piV6l3tQ+i79lkQykDUgbuG82IJw28d5OeHmz48FMkYUiNlodLUuuiMxGk1kiiQzhuCySgbQBaQN32waEVkWTOZLZArlSRRM6kWxXeHuz48Hsw2ys2+p0taGsGNaWqw1KlboskoG0AWkDd9sGqnVtVCo8uma7Q38w0N7fiVdxs+Od2ImvhJcnUoeLeSpaGnAttblIFS6LZCBtQNrAHbUBoVNiA/vrTeyFhmkj1pnKXZ/fid1H32t7QwhRnA1z5Vm+hJY2IG3gLtvAxxr28d//By+rvqw8IH7qAAAAAElFTkSuQmCC;fontSize=16;" parent="1" vertex="1">
                    <mxGeometry x="469.75" y="400" width="169.25" height="33.32" as="geometry"/>
                </mxCell>
                <mxCell id="6" value="" style="shape=table;startSize=0;container=1;collapsible=0;childLayout=tableLayout;fontSize=16;align=center;strokeWidth=1;fillColor=default;" parent="1" vertex="1">
                    <mxGeometry x="289" y="450" width="350" height="260" as="geometry"/>
                </mxCell>
                <mxCell id="7" style="shape=partialRectangle;collapsible=0;dropTarget=0;pointerEvents=0;top=0;left=0;bottom=0;right=0;points=[[0,0.5],[1,0.5]];portConstraint=eastwest;fontSize=16;align=center;strokeWidth=1;fillColor=none;" parent="6" vertex="1">
                    <mxGeometry width="350" height="20" as="geometry"/>
                </mxCell>
                <mxCell id="8" value="CPU" style="shape=partialRectangle;html=1;whiteSpace=wrap;connectable=0;overflow=hidden;top=0;left=0;bottom=0;right=0;pointerEvents=1;fontSize=16;align=center;strokeWidth=1;fillColor=#f8cecc;strokeColor=#b85450;" parent="7" vertex="1">
                    <mxGeometry width="175" height="20" as="geometry">
                        <mxRectangle width="175" height="20" as="alternateBounds"/>
                    </mxGeometry>
                </mxCell>
                <mxCell id="9" value="GPU" style="shape=partialRectangle;html=1;whiteSpace=wrap;connectable=0;overflow=hidden;top=0;left=0;bottom=0;right=0;pointerEvents=1;fontSize=16;align=center;strokeWidth=1;fillColor=#f8cecc;strokeColor=#b85450;" parent="7" vertex="1">
                    <mxGeometry x="175" width="175" height="20" as="geometry">
                        <mxRectangle width="175" height="20" as="alternateBounds"/>
                    </mxGeometry>
                </mxCell>
                <mxCell id="10" value="" style="shape=partialRectangle;collapsible=0;dropTarget=0;pointerEvents=0;top=0;left=0;bottom=0;right=0;points=[[0,0.5],[1,0.5]];portConstraint=eastwest;fontSize=16;align=center;strokeWidth=1;fillColor=none;" parent="6" vertex="1">
                    <mxGeometry y="20" width="350" height="24" as="geometry"/>
                </mxCell>
                <mxCell id="11" value="Core i7-10700K" style="shape=partialRectangle;html=1;whiteSpace=wrap;connectable=0;overflow=hidden;top=0;left=0;bottom=0;right=0;pointerEvents=1;fontSize=16;align=center;strokeWidth=1;fillColor=none;" parent="10" vertex="1">
                    <mxGeometry width="175" height="24" as="geometry">
                        <mxRectangle width="175" height="24" as="alternateBounds"/>
                    </mxGeometry>
                </mxCell>
                <mxCell id="12" value="RTX2080 Ti" style="shape=partialRectangle;html=1;whiteSpace=wrap;connectable=0;overflow=hidden;top=0;left=0;bottom=0;right=0;pointerEvents=1;fontSize=16;align=center;strokeWidth=1;fillColor=none;" parent="10" vertex="1">
                    <mxGeometry x="175" width="175" height="24" as="geometry">
                        <mxRectangle width="175" height="24" as="alternateBounds"/>
                    </mxGeometry>
                </mxCell>
                <mxCell id="13" value="" style="shape=partialRectangle;collapsible=0;dropTarget=0;pointerEvents=0;top=0;left=0;bottom=0;right=0;points=[[0,0.5],[1,0.5]];portConstraint=eastwest;fontSize=16;align=center;strokeWidth=1;fillColor=none;" parent="6" vertex="1">
                    <mxGeometry y="44" width="350" height="25" as="geometry"/>
                </mxCell>
                <mxCell id="14" value="&lt;span&gt;Core i7-10700K&lt;/span&gt;" style="shape=partialRectangle;html=1;whiteSpace=wrap;connectable=0;overflow=hidden;top=0;left=0;bottom=0;right=0;pointerEvents=1;fontSize=16;align=center;strokeWidth=1;fillColor=none;" parent="13" vertex="1">
                    <mxGeometry width="175" height="25" as="geometry">
                        <mxRectangle width="175" height="25" as="alternateBounds"/>
                    </mxGeometry>
                </mxCell>
                <mxCell id="15" value="RTX2080 Super" style="shape=partialRectangle;html=1;whiteSpace=wrap;connectable=0;overflow=hidden;top=0;left=0;bottom=0;right=0;pointerEvents=1;fontSize=16;align=center;strokeWidth=1;fillColor=none;" parent="13" vertex="1">
                    <mxGeometry x="175" width="175" height="25" as="geometry">
                        <mxRectangle width="175" height="25" as="alternateBounds"/>
                    </mxGeometry>
                </mxCell>
                <mxCell id="16" value="" style="shape=partialRectangle;collapsible=0;dropTarget=0;pointerEvents=0;top=0;left=0;bottom=0;right=0;points=[[0,0.5],[1,0.5]];portConstraint=eastwest;fontSize=16;align=center;strokeWidth=1;fillColor=none;" parent="6" vertex="1">
                    <mxGeometry y="69" width="350" height="24" as="geometry"/>
                </mxCell>
                <mxCell id="17" value="&lt;span&gt;Core i7-10700K&lt;/span&gt;" style="shape=partialRectangle;html=1;whiteSpace=wrap;connectable=0;overflow=hidden;top=0;left=0;bottom=0;right=0;pointerEvents=1;fontSize=16;align=center;strokeWidth=1;fillColor=none;" parent="16" vertex="1">
                    <mxGeometry width="175" height="24" as="geometry">
                        <mxRectangle width="175" height="24" as="alternateBounds"/>
                    </mxGeometry>
                </mxCell>
                <mxCell id="18" value="RTX 2080" style="shape=partialRectangle;html=1;whiteSpace=wrap;connectable=0;overflow=hidden;top=0;left=0;bottom=0;right=0;pointerEvents=1;fontSize=16;align=center;strokeWidth=1;fillColor=none;" parent="16" vertex="1">
                    <mxGeometry x="175" width="175" height="24" as="geometry">
                        <mxRectangle width="175" height="24" as="alternateBounds"/>
                    </mxGeometry>
                </mxCell>
                <mxCell id="19" value="" style="shape=partialRectangle;collapsible=0;dropTarget=0;pointerEvents=0;top=0;left=0;bottom=0;right=0;points=[[0,0.5],[1,0.5]];portConstraint=eastwest;fontSize=16;align=center;strokeWidth=1;fillColor=none;" parent="6" vertex="1">
                    <mxGeometry y="93" width="350" height="24" as="geometry"/>
                </mxCell>
                <mxCell id="20" value="&lt;span style=&quot;color: rgb(0 , 0 , 0) ; font-family: &amp;#34;helvetica&amp;#34; ; font-size: 16px ; font-style: normal ; font-weight: 400 ; letter-spacing: normal ; text-align: center ; text-indent: 0px ; text-transform: none ; word-spacing: 0px ; background-color: rgb(248 , 249 , 250) ; display: inline ; float: none&quot;&gt;Core i7-10700K&lt;/span&gt;" style="shape=partialRectangle;html=1;whiteSpace=wrap;connectable=0;overflow=hidden;top=0;left=0;bottom=0;right=0;pointerEvents=1;fontSize=16;align=center;strokeWidth=1;fillColor=none;" parent="19" vertex="1">
                    <mxGeometry width="175" height="24" as="geometry">
                        <mxRectangle width="175" height="24" as="alternateBounds"/>
                    </mxGeometry>
                </mxCell>
                <mxCell id="21" value="RTX 2070 Super" style="shape=partialRectangle;html=1;whiteSpace=wrap;connectable=0;overflow=hidden;top=0;left=0;bottom=0;right=0;pointerEvents=1;fontSize=16;align=center;strokeWidth=1;fillColor=none;" parent="19" vertex="1">
                    <mxGeometry x="175" width="175" height="24" as="geometry">
                        <mxRectangle width="175" height="24" as="alternateBounds"/>
                    </mxGeometry>
                </mxCell>
                <mxCell id="22" value="" style="shape=partialRectangle;collapsible=0;dropTarget=0;pointerEvents=0;top=0;left=0;bottom=0;right=0;points=[[0,0.5],[1,0.5]];portConstraint=eastwest;fontSize=16;align=center;strokeWidth=1;fillColor=none;" parent="6" vertex="1">
                    <mxGeometry y="117" width="350" height="24" as="geometry"/>
                </mxCell>
                <mxCell id="23" value="&lt;span&gt;Core i7-10700K&lt;/span&gt;" style="shape=partialRectangle;html=1;whiteSpace=wrap;connectable=0;overflow=hidden;top=0;left=0;bottom=0;right=0;pointerEvents=1;fontSize=16;align=center;strokeWidth=1;fillColor=none;" parent="22" vertex="1">
                    <mxGeometry width="175" height="24" as="geometry">
                        <mxRectangle width="175" height="24" as="alternateBounds"/>
                    </mxGeometry>
                </mxCell>
                <mxCell id="24" value="GTX 1660 Ti" style="shape=partialRectangle;html=1;whiteSpace=wrap;connectable=0;overflow=hidden;top=0;left=0;bottom=0;right=0;pointerEvents=1;fontSize=16;align=center;strokeWidth=1;fillColor=none;" parent="22" vertex="1">
                    <mxGeometry x="175" width="175" height="24" as="geometry">
                        <mxRectangle width="175" height="24" as="alternateBounds"/>
                    </mxGeometry>
                </mxCell>
                <mxCell id="25" value="" style="shape=partialRectangle;collapsible=0;dropTarget=0;pointerEvents=0;top=0;left=0;bottom=0;right=0;points=[[0,0.5],[1,0.5]];portConstraint=eastwest;fontSize=16;align=center;strokeWidth=1;fillColor=none;" parent="6" vertex="1">
                    <mxGeometry y="141" width="350" height="24" as="geometry"/>
                </mxCell>
                <mxCell id="26" value="&lt;span&gt;Core i7-10700K&lt;/span&gt;" style="shape=partialRectangle;html=1;whiteSpace=wrap;connectable=0;overflow=hidden;top=0;left=0;bottom=0;right=0;pointerEvents=1;fontSize=16;align=center;strokeWidth=1;fillColor=none;" parent="25" vertex="1">
                    <mxGeometry width="175" height="24" as="geometry">
                        <mxRectangle width="175" height="24" as="alternateBounds"/>
                    </mxGeometry>
                </mxCell>
                <mxCell id="27" value="GTX 1660 Super" style="shape=partialRectangle;html=1;whiteSpace=wrap;connectable=0;overflow=hidden;top=0;left=0;bottom=0;right=0;pointerEvents=1;fontSize=16;align=center;strokeWidth=1;fillColor=none;" parent="25" vertex="1">
                    <mxGeometry x="175" width="175" height="24" as="geometry">
                        <mxRectangle width="175" height="24" as="alternateBounds"/>
                    </mxGeometry>
                </mxCell>
                <mxCell id="28" value="" style="shape=partialRectangle;collapsible=0;dropTarget=0;pointerEvents=0;top=0;left=0;bottom=0;right=0;points=[[0,0.5],[1,0.5]];portConstraint=eastwest;fontSize=16;align=center;strokeWidth=1;fillColor=none;" parent="6" vertex="1">
                    <mxGeometry y="165" width="350" height="24" as="geometry"/>
                </mxCell>
                <mxCell id="29" value="&lt;span style=&quot;color: rgb(0 , 0 , 0) ; font-family: &amp;#34;helvetica&amp;#34; ; font-size: 16px ; font-style: normal ; font-weight: 400 ; letter-spacing: normal ; text-align: center ; text-indent: 0px ; text-transform: none ; word-spacing: 0px ; background-color: rgb(248 , 249 , 250) ; display: inline ; float: none&quot;&gt;Core i7-10700K&lt;/span&gt;" style="shape=partialRectangle;html=1;whiteSpace=wrap;connectable=0;overflow=hidden;top=0;left=0;bottom=0;right=0;pointerEvents=1;fontSize=16;align=center;strokeWidth=1;fillColor=none;" parent="28" vertex="1">
                    <mxGeometry width="175" height="24" as="geometry">
                        <mxRectangle width="175" height="24" as="alternateBounds"/>
                    </mxGeometry>
                </mxCell>
                <mxCell id="30" value="GTX 1660" style="shape=partialRectangle;html=1;whiteSpace=wrap;connectable=0;overflow=hidden;top=0;left=0;bottom=0;right=0;pointerEvents=1;fontSize=16;align=center;strokeWidth=1;fillColor=none;" parent="28" vertex="1">
                    <mxGeometry x="175" width="175" height="24" as="geometry">
                        <mxRectangle width="175" height="24" as="alternateBounds"/>
                    </mxGeometry>
                </mxCell>
                <mxCell id="31" value="" style="shape=partialRectangle;collapsible=0;dropTarget=0;pointerEvents=0;top=0;left=0;bottom=0;right=0;points=[[0,0.5],[1,0.5]];portConstraint=eastwest;fontSize=16;align=center;strokeWidth=1;fillColor=none;" parent="6" vertex="1">
                    <mxGeometry y="189" width="350" height="25" as="geometry"/>
                </mxCell>
                <mxCell id="32" value="" style="shape=partialRectangle;html=1;whiteSpace=wrap;connectable=0;overflow=hidden;top=0;left=0;bottom=0;right=0;pointerEvents=1;fontSize=16;align=center;strokeWidth=1;fillColor=none;" parent="31" vertex="1">
                    <mxGeometry width="175" height="25" as="geometry">
                        <mxRectangle width="175" height="25" as="alternateBounds"/>
                    </mxGeometry>
                </mxCell>
                <mxCell id="33" value="" style="shape=partialRectangle;html=1;whiteSpace=wrap;connectable=0;overflow=hidden;top=0;left=0;bottom=0;right=0;pointerEvents=1;fontSize=16;align=center;strokeWidth=1;fillColor=none;" parent="31" vertex="1">
                    <mxGeometry x="175" width="175" height="25" as="geometry">
                        <mxRectangle width="175" height="25" as="alternateBounds"/>
                    </mxGeometry>
                </mxCell>
                <mxCell id="34" value="" style="shape=partialRectangle;collapsible=0;dropTarget=0;pointerEvents=0;top=0;left=0;bottom=0;right=0;points=[[0,0.5],[1,0.5]];portConstraint=eastwest;fontSize=16;align=center;strokeWidth=1;fillColor=none;" parent="6" vertex="1">
                    <mxGeometry y="214" width="350" height="21" as="geometry"/>
                </mxCell>
                <mxCell id="35" value="" style="shape=partialRectangle;html=1;whiteSpace=wrap;connectable=0;overflow=hidden;top=0;left=0;bottom=0;right=0;pointerEvents=1;fontSize=16;align=center;strokeWidth=1;fillColor=none;" parent="34" vertex="1">
                    <mxGeometry width="175" height="21" as="geometry">
                        <mxRectangle width="175" height="21" as="alternateBounds"/>
                    </mxGeometry>
                </mxCell>
                <mxCell id="36" value="" style="shape=partialRectangle;html=1;whiteSpace=wrap;connectable=0;overflow=hidden;top=0;left=0;bottom=0;right=0;pointerEvents=1;fontSize=16;align=center;strokeWidth=1;fillColor=none;" parent="34" vertex="1">
                    <mxGeometry x="175" width="175" height="21" as="geometry">
                        <mxRectangle width="175" height="21" as="alternateBounds"/>
                    </mxGeometry>
                </mxCell>
                <mxCell id="37" value="" style="shape=partialRectangle;collapsible=0;dropTarget=0;pointerEvents=0;top=0;left=0;bottom=0;right=0;points=[[0,0.5],[1,0.5]];portConstraint=eastwest;fontSize=16;align=center;strokeWidth=1;fillColor=none;" parent="6" vertex="1">
                    <mxGeometry y="235" width="350" height="25" as="geometry"/>
                </mxCell>
                <mxCell id="38" value="" style="shape=partialRectangle;html=1;whiteSpace=wrap;connectable=0;overflow=hidden;top=0;left=0;bottom=0;right=0;pointerEvents=1;fontSize=16;align=center;strokeWidth=1;fillColor=none;" parent="37" vertex="1">
                    <mxGeometry width="175" height="25" as="geometry">
                        <mxRectangle width="175" height="25" as="alternateBounds"/>
                    </mxGeometry>
                </mxCell>
                <mxCell id="39" value="" style="shape=partialRectangle;html=1;whiteSpace=wrap;connectable=0;overflow=hidden;top=0;left=0;bottom=0;right=0;pointerEvents=1;fontSize=16;align=center;strokeWidth=1;fillColor=none;" parent="37" vertex="1">
                    <mxGeometry x="175" width="175" height="25" as="geometry">
                        <mxRectangle width="175" height="25" as="alternateBounds"/>
                    </mxGeometry>
                </mxCell>
                <mxCell id="40" value="×" style="text;html=1;strokeColor=none;fillColor=none;align=center;verticalAlign=middle;whiteSpace=wrap;rounded=0;fontSize=16;fontColor=#0F0F0F;" parent="1" vertex="1">
                    <mxGeometry x="449.75" y="400" width="30" height="40" as="geometry"/>
                </mxCell>
                <mxCell id="41" value="CPU ...　　　" style="text;html=1;strokeColor=none;fillColor=none;align=left;verticalAlign=middle;whiteSpace=wrap;rounded=0;fontSize=16;fontColor=#999999;labelBackgroundColor=#FFFFFF;" parent="1" vertex="1">
                    <mxGeometry x="289" y="405.29" width="166" height="24.71" as="geometry"/>
                </mxCell>
                <mxCell id="42" value="GPU ...　　　" style="text;html=1;strokeColor=none;fillColor=none;align=left;verticalAlign=middle;whiteSpace=wrap;rounded=0;fontSize=16;fontColor=#999999;labelBackgroundColor=#FFFFFF;" parent="1" vertex="1">
                    <mxGeometry x="474" y="404.31" width="166" height="24.71" as="geometry"/>
                </mxCell>
                <mxCell id="43" value="" style="shape=table;startSize=0;container=1;collapsible=0;childLayout=tableLayout;labelBackgroundColor=#FFFFFF;fontSize=16;fontColor=#0F0F0F;strokeColor=#0F0F0F;fillColor=#FFFFFF;align=left;" parent="1" vertex="1">
                    <mxGeometry x="640" y="450" width="309" height="260" as="geometry"/>
                </mxCell>
                <mxCell id="44" value="" style="shape=partialRectangle;collapsible=0;dropTarget=0;pointerEvents=0;fillColor=none;top=0;left=0;bottom=0;right=0;points=[[0,0.5],[1,0.5]];portConstraint=eastwest;labelBackgroundColor=#FFFFFF;fontSize=7;fontColor=#0F0F0F;strokeColor=#0F0F0F;align=left;" parent="43" vertex="1">
                    <mxGeometry width="309" height="20" as="geometry"/>
                </mxCell>
                <mxCell id="45" value="&lt;span style=&quot;font-size: 13px&quot;&gt;ゲーム適性&lt;/span&gt;" style="shape=partialRectangle;html=1;whiteSpace=wrap;connectable=0;overflow=hidden;fillColor=#f8cecc;top=0;left=0;bottom=0;right=0;pointerEvents=1;labelBackgroundColor=none;fontSize=16;strokeColor=#b85450;align=left;fontColor=#0F0F0F;" parent="44" vertex="1">
                    <mxGeometry width="78" height="20" as="geometry">
                        <mxRectangle width="78" height="20" as="alternateBounds"/>
                    </mxGeometry>
                </mxCell>
                <mxCell id="46" value="4K解像度" style="shape=partialRectangle;html=1;whiteSpace=wrap;connectable=0;overflow=hidden;fillColor=#f8cecc;top=0;left=0;bottom=0;right=0;pointerEvents=1;labelBackgroundColor=none;fontSize=13;strokeColor=#b85450;align=left;fontColor=#0F0F0F;" parent="44" vertex="1">
                    <mxGeometry x="78" width="77" height="20" as="geometry">
                        <mxRectangle width="77" height="20" as="alternateBounds"/>
                    </mxGeometry>
                </mxCell>
                <mxCell id="47" value="ゲーム配信" style="shape=partialRectangle;html=1;whiteSpace=wrap;connectable=0;overflow=hidden;fillColor=#f8cecc;top=0;left=0;bottom=0;right=0;pointerEvents=1;labelBackgroundColor=none;fontSize=13;strokeColor=#b85450;align=left;fontColor=#0F0F0F;" parent="44" vertex="1">
                    <mxGeometry x="155" width="76" height="20" as="geometry">
                        <mxRectangle width="76" height="20" as="alternateBounds"/>
                    </mxGeometry>
                </mxCell>
                <mxCell id="48" value="バランス" style="shape=partialRectangle;html=1;whiteSpace=wrap;connectable=0;overflow=hidden;fillColor=#f8cecc;top=0;left=0;bottom=0;right=0;pointerEvents=1;labelBackgroundColor=none;fontSize=13;strokeColor=#b85450;align=left;fontColor=#0F0F0F;" parent="44" vertex="1">
                    <mxGeometry x="231" width="78" height="20" as="geometry">
                        <mxRectangle width="78" height="20" as="alternateBounds"/>
                    </mxGeometry>
                </mxCell>
                <mxCell id="49" value="" style="shape=partialRectangle;collapsible=0;dropTarget=0;pointerEvents=0;fillColor=none;top=0;left=0;bottom=0;right=0;points=[[0,0.5],[1,0.5]];portConstraint=eastwest;labelBackgroundColor=#FFFFFF;fontSize=16;fontColor=#0F0F0F;strokeColor=#0F0F0F;align=left;strokeWidth=1;" parent="43" vertex="1">
                    <mxGeometry y="20" width="309" height="24" as="geometry"/>
                </mxCell>
                <mxCell id="50" value="S+" style="shape=partialRectangle;html=1;whiteSpace=wrap;connectable=0;overflow=hidden;fillColor=none;top=0;left=0;bottom=0;right=0;pointerEvents=1;labelBackgroundColor=#FFFFFF;fontSize=16;fontColor=#0F0F0F;strokeColor=#0F0F0F;align=left;strokeWidth=1;" parent="49" vertex="1">
                    <mxGeometry width="78" height="24" as="geometry">
                        <mxRectangle width="78" height="24" as="alternateBounds"/>
                    </mxGeometry>
                </mxCell>
                <mxCell id="51" value="◎" style="shape=partialRectangle;html=1;whiteSpace=wrap;connectable=0;overflow=hidden;fillColor=none;top=0;left=0;bottom=0;right=0;pointerEvents=1;labelBackgroundColor=#FFFFFF;fontSize=16;fontColor=#0F0F0F;strokeColor=#0F0F0F;align=left;strokeWidth=1;" parent="49" vertex="1">
                    <mxGeometry x="78" width="77" height="24" as="geometry">
                        <mxRectangle width="77" height="24" as="alternateBounds"/>
                    </mxGeometry>
                </mxCell>
                <mxCell id="52" value="◎" style="shape=partialRectangle;html=1;whiteSpace=wrap;connectable=0;overflow=hidden;fillColor=none;top=0;left=0;bottom=0;right=0;pointerEvents=1;labelBackgroundColor=#FFFFFF;fontSize=16;fontColor=#0F0F0F;strokeColor=#0F0F0F;align=left;strokeWidth=1;" parent="49" vertex="1">
                    <mxGeometry x="155" width="76" height="24" as="geometry">
                        <mxRectangle width="76" height="24" as="alternateBounds"/>
                    </mxGeometry>
                </mxCell>
                <mxCell id="53" value="○" style="shape=partialRectangle;html=1;whiteSpace=wrap;connectable=0;overflow=hidden;fillColor=none;top=0;left=0;bottom=0;right=0;pointerEvents=1;labelBackgroundColor=#FFFFFF;fontSize=16;fontColor=#0F0F0F;strokeColor=#0F0F0F;align=left;strokeWidth=1;" parent="49" vertex="1">
                    <mxGeometry x="231" width="78" height="24" as="geometry">
                        <mxRectangle width="78" height="24" as="alternateBounds"/>
                    </mxGeometry>
                </mxCell>
                <mxCell id="54" value="" style="shape=partialRectangle;collapsible=0;dropTarget=0;pointerEvents=0;fillColor=none;top=0;left=0;bottom=0;right=0;points=[[0,0.5],[1,0.5]];portConstraint=eastwest;labelBackgroundColor=#FFFFFF;fontSize=16;fontColor=#0F0F0F;strokeColor=#0F0F0F;align=left;strokeWidth=1;" parent="43" vertex="1">
                    <mxGeometry y="44" width="309" height="25" as="geometry"/>
                </mxCell>
                <mxCell id="55" value="S-" style="shape=partialRectangle;html=1;whiteSpace=wrap;connectable=0;overflow=hidden;fillColor=none;top=0;left=0;bottom=0;right=0;pointerEvents=1;labelBackgroundColor=#FFFFFF;fontSize=16;fontColor=#0F0F0F;strokeColor=#0F0F0F;align=left;strokeWidth=1;" parent="54" vertex="1">
                    <mxGeometry width="78" height="25" as="geometry">
                        <mxRectangle width="78" height="25" as="alternateBounds"/>
                    </mxGeometry>
                </mxCell>
                <mxCell id="56" value="&lt;span style=&quot;color: rgb(15 , 15 , 15) ; font-family: &amp;#34;helvetica&amp;#34; ; font-size: 16px ; font-style: normal ; font-weight: 400 ; letter-spacing: normal ; text-align: left ; text-indent: 0px ; text-transform: none ; word-spacing: 0px ; background-color: rgb(255 , 255 , 255) ; display: inline ; float: none&quot;&gt;◎&lt;/span&gt;" style="shape=partialRectangle;html=1;whiteSpace=wrap;connectable=0;overflow=hidden;fillColor=none;top=0;left=0;bottom=0;right=0;pointerEvents=1;labelBackgroundColor=#FFFFFF;fontSize=16;fontColor=#0F0F0F;strokeColor=#0F0F0F;align=left;strokeWidth=1;" parent="54" vertex="1">
                    <mxGeometry x="78" width="77" height="25" as="geometry">
                        <mxRectangle width="77" height="25" as="alternateBounds"/>
                    </mxGeometry>
                </mxCell>
                <mxCell id="57" value="◎" style="shape=partialRectangle;html=1;whiteSpace=wrap;connectable=0;overflow=hidden;fillColor=none;top=0;left=0;bottom=0;right=0;pointerEvents=1;labelBackgroundColor=#FFFFFF;fontSize=16;fontColor=#0F0F0F;strokeColor=#0F0F0F;align=left;strokeWidth=1;" parent="54" vertex="1">
                    <mxGeometry x="155" width="76" height="25" as="geometry">
                        <mxRectangle width="76" height="25" as="alternateBounds"/>
                    </mxGeometry>
                </mxCell>
                <mxCell id="58" value="○" style="shape=partialRectangle;html=1;whiteSpace=wrap;connectable=0;overflow=hidden;fillColor=none;top=0;left=0;bottom=0;right=0;pointerEvents=1;labelBackgroundColor=#FFFFFF;fontSize=16;fontColor=#0F0F0F;strokeColor=#0F0F0F;align=left;strokeWidth=1;" parent="54" vertex="1">
                    <mxGeometry x="231" width="78" height="25" as="geometry">
                        <mxRectangle width="78" height="25" as="alternateBounds"/>
                    </mxGeometry>
                </mxCell>
                <mxCell id="59" value="" style="shape=partialRectangle;collapsible=0;dropTarget=0;pointerEvents=0;fillColor=none;top=0;left=0;bottom=0;right=0;points=[[0,0.5],[1,0.5]];portConstraint=eastwest;labelBackgroundColor=#FFFFFF;fontSize=16;fontColor=#0F0F0F;strokeColor=#0F0F0F;align=left;strokeWidth=1;" parent="43" vertex="1">
                    <mxGeometry y="69" width="309" height="22" as="geometry"/>
                </mxCell>
                <mxCell id="60" value="A+" style="shape=partialRectangle;html=1;whiteSpace=wrap;connectable=0;overflow=hidden;fillColor=none;top=0;left=0;bottom=0;right=0;pointerEvents=1;labelBackgroundColor=#FFFFFF;fontSize=16;fontColor=#0F0F0F;strokeColor=#0F0F0F;align=left;strokeWidth=1;" parent="59" vertex="1">
                    <mxGeometry width="78" height="22" as="geometry">
                        <mxRectangle width="78" height="22" as="alternateBounds"/>
                    </mxGeometry>
                </mxCell>
                <mxCell id="61" value="○" style="shape=partialRectangle;html=1;whiteSpace=wrap;connectable=0;overflow=hidden;fillColor=none;top=0;left=0;bottom=0;right=0;pointerEvents=1;labelBackgroundColor=#FFFFFF;fontSize=16;fontColor=#0F0F0F;strokeColor=#0F0F0F;align=left;strokeWidth=1;" parent="59" vertex="1">
                    <mxGeometry x="78" width="77" height="22" as="geometry">
                        <mxRectangle width="77" height="22" as="alternateBounds"/>
                    </mxGeometry>
                </mxCell>
                <mxCell id="62" value="◎" style="shape=partialRectangle;html=1;whiteSpace=wrap;connectable=0;overflow=hidden;fillColor=none;top=0;left=0;bottom=0;right=0;pointerEvents=1;labelBackgroundColor=#FFFFFF;fontSize=16;fontColor=#0F0F0F;strokeColor=#0F0F0F;align=left;strokeWidth=1;" parent="59" vertex="1">
                    <mxGeometry x="155" width="76" height="22" as="geometry">
                        <mxRectangle width="76" height="22" as="alternateBounds"/>
                    </mxGeometry>
                </mxCell>
                <mxCell id="63" value="×" style="shape=partialRectangle;html=1;whiteSpace=wrap;connectable=0;overflow=hidden;fillColor=none;top=0;left=0;bottom=0;right=0;pointerEvents=1;labelBackgroundColor=#FFFFFF;fontSize=16;fontColor=#0F0F0F;strokeColor=#0F0F0F;align=left;strokeWidth=1;" parent="59" vertex="1">
                    <mxGeometry x="231" width="78" height="22" as="geometry">
                        <mxRectangle width="78" height="22" as="alternateBounds"/>
                    </mxGeometry>
                </mxCell>
                <mxCell id="64" value="" style="shape=partialRectangle;collapsible=0;dropTarget=0;pointerEvents=0;fillColor=none;top=0;left=0;bottom=0;right=0;points=[[0,0.5],[1,0.5]];portConstraint=eastwest;labelBackgroundColor=#FFFFFF;fontSize=16;fontColor=#0F0F0F;strokeColor=#0F0F0F;align=left;strokeWidth=1;" parent="43" vertex="1">
                    <mxGeometry y="91" width="309" height="26" as="geometry"/>
                </mxCell>
                <mxCell id="65" value="A+" style="shape=partialRectangle;html=1;whiteSpace=wrap;connectable=0;overflow=hidden;fillColor=none;top=0;left=0;bottom=0;right=0;pointerEvents=1;labelBackgroundColor=#FFFFFF;fontSize=16;fontColor=#0F0F0F;strokeColor=#0F0F0F;align=left;strokeWidth=1;" parent="64" vertex="1">
                    <mxGeometry width="78" height="26" as="geometry">
                        <mxRectangle width="78" height="26" as="alternateBounds"/>
                    </mxGeometry>
                </mxCell>
                <mxCell id="66" value="△" style="shape=partialRectangle;html=1;whiteSpace=wrap;connectable=0;overflow=hidden;fillColor=none;top=0;left=0;bottom=0;right=0;pointerEvents=1;labelBackgroundColor=#FFFFFF;fontSize=16;fontColor=#0F0F0F;strokeColor=#0F0F0F;align=left;strokeWidth=1;" parent="64" vertex="1">
                    <mxGeometry x="78" width="77" height="26" as="geometry">
                        <mxRectangle width="77" height="26" as="alternateBounds"/>
                    </mxGeometry>
                </mxCell>
                <mxCell id="67" value="◎" style="shape=partialRectangle;html=1;whiteSpace=wrap;connectable=0;overflow=hidden;fillColor=none;top=0;left=0;bottom=0;right=0;pointerEvents=1;labelBackgroundColor=#FFFFFF;fontSize=16;fontColor=#0F0F0F;strokeColor=#0F0F0F;align=left;strokeWidth=1;" parent="64" vertex="1">
                    <mxGeometry x="155" width="76" height="26" as="geometry">
                        <mxRectangle width="76" height="26" as="alternateBounds"/>
                    </mxGeometry>
                </mxCell>
                <mxCell id="68" value="×" style="shape=partialRectangle;html=1;whiteSpace=wrap;connectable=0;overflow=hidden;fillColor=none;top=0;left=0;bottom=0;right=0;pointerEvents=1;labelBackgroundColor=#FFFFFF;fontSize=16;fontColor=#0F0F0F;strokeColor=#0F0F0F;align=left;strokeWidth=1;" parent="64" vertex="1">
                    <mxGeometry x="231" width="78" height="26" as="geometry">
                        <mxRectangle width="78" height="26" as="alternateBounds"/>
                    </mxGeometry>
                </mxCell>
                <mxCell id="69" value="" style="shape=partialRectangle;collapsible=0;dropTarget=0;pointerEvents=0;fillColor=none;top=0;left=0;bottom=0;right=0;points=[[0,0.5],[1,0.5]];portConstraint=eastwest;labelBackgroundColor=#FFFFFF;fontSize=16;fontColor=#0F0F0F;strokeColor=#0F0F0F;align=left;strokeWidth=1;" parent="43" vertex="1">
                    <mxGeometry y="117" width="309" height="22" as="geometry"/>
                </mxCell>
                <mxCell id="70" value="B" style="shape=partialRectangle;html=1;whiteSpace=wrap;connectable=0;overflow=hidden;fillColor=none;top=0;left=0;bottom=0;right=0;pointerEvents=1;labelBackgroundColor=#FFFFFF;fontSize=16;fontColor=#0F0F0F;strokeColor=#0F0F0F;align=left;strokeWidth=1;" parent="69" vertex="1">
                    <mxGeometry width="78" height="22" as="geometry">
                        <mxRectangle width="78" height="22" as="alternateBounds"/>
                    </mxGeometry>
                </mxCell>
                <mxCell id="71" value="×" style="shape=partialRectangle;html=1;whiteSpace=wrap;connectable=0;overflow=hidden;fillColor=none;top=0;left=0;bottom=0;right=0;pointerEvents=1;labelBackgroundColor=#FFFFFF;fontSize=16;fontColor=#0F0F0F;strokeColor=#0F0F0F;align=left;strokeWidth=1;" parent="69" vertex="1">
                    <mxGeometry x="78" width="77" height="22" as="geometry">
                        <mxRectangle width="77" height="22" as="alternateBounds"/>
                    </mxGeometry>
                </mxCell>
                <mxCell id="72" value="○" style="shape=partialRectangle;html=1;whiteSpace=wrap;connectable=0;overflow=hidden;fillColor=none;top=0;left=0;bottom=0;right=0;pointerEvents=1;labelBackgroundColor=#FFFFFF;fontSize=16;fontColor=#0F0F0F;strokeColor=#0F0F0F;align=left;strokeWidth=1;" parent="69" vertex="1">
                    <mxGeometry x="155" width="76" height="22" as="geometry">
                        <mxRectangle width="76" height="22" as="alternateBounds"/>
                    </mxGeometry>
                </mxCell>
                <mxCell id="73" value="&lt;span&gt;×&lt;/span&gt;" style="shape=partialRectangle;html=1;whiteSpace=wrap;connectable=0;overflow=hidden;fillColor=none;top=0;left=0;bottom=0;right=0;pointerEvents=1;labelBackgroundColor=#FFFFFF;fontSize=16;fontColor=#0F0F0F;strokeColor=#0F0F0F;align=left;strokeWidth=1;" parent="69" vertex="1">
                    <mxGeometry x="231" width="78" height="22" as="geometry">
                        <mxRectangle width="78" height="22" as="alternateBounds"/>
                    </mxGeometry>
                </mxCell>
                <mxCell id="74" value="" style="shape=partialRectangle;collapsible=0;dropTarget=0;pointerEvents=0;fillColor=none;top=0;left=0;bottom=0;right=0;points=[[0,0.5],[1,0.5]];portConstraint=eastwest;labelBackgroundColor=#FFFFFF;fontSize=16;fontColor=#0F0F0F;strokeColor=#0F0F0F;align=left;strokeWidth=1;" parent="43" vertex="1">
                    <mxGeometry y="139" width="309" height="26" as="geometry"/>
                </mxCell>
                <mxCell id="75" value="B-" style="shape=partialRectangle;html=1;whiteSpace=wrap;connectable=0;overflow=hidden;fillColor=none;top=0;left=0;bottom=0;right=0;pointerEvents=1;labelBackgroundColor=#FFFFFF;fontSize=16;fontColor=#0F0F0F;strokeColor=#0F0F0F;align=left;strokeWidth=1;" parent="74" vertex="1">
                    <mxGeometry width="78" height="26" as="geometry">
                        <mxRectangle width="78" height="26" as="alternateBounds"/>
                    </mxGeometry>
                </mxCell>
                <mxCell id="76" value="×" style="shape=partialRectangle;html=1;whiteSpace=wrap;connectable=0;overflow=hidden;fillColor=none;top=0;left=0;bottom=0;right=0;pointerEvents=1;labelBackgroundColor=#FFFFFF;fontSize=16;fontColor=#0F0F0F;strokeColor=#0F0F0F;align=left;strokeWidth=1;" parent="74" vertex="1">
                    <mxGeometry x="78" width="77" height="26" as="geometry">
                        <mxRectangle width="77" height="26" as="alternateBounds"/>
                    </mxGeometry>
                </mxCell>
                <mxCell id="77" value="△" style="shape=partialRectangle;html=1;whiteSpace=wrap;connectable=0;overflow=hidden;fillColor=none;top=0;left=0;bottom=0;right=0;pointerEvents=1;labelBackgroundColor=#FFFFFF;fontSize=16;fontColor=#0F0F0F;strokeColor=#0F0F0F;align=left;strokeWidth=1;" parent="74" vertex="1">
                    <mxGeometry x="155" width="76" height="26" as="geometry">
                        <mxRectangle width="76" height="26" as="alternateBounds"/>
                    </mxGeometry>
                </mxCell>
                <mxCell id="78" value="&lt;span&gt;×&lt;/span&gt;" style="shape=partialRectangle;html=1;whiteSpace=wrap;connectable=0;overflow=hidden;fillColor=none;top=0;left=0;bottom=0;right=0;pointerEvents=1;labelBackgroundColor=#FFFFFF;fontSize=16;fontColor=#0F0F0F;strokeColor=#0F0F0F;align=left;strokeWidth=1;" parent="74" vertex="1">
                    <mxGeometry x="231" width="78" height="26" as="geometry">
                        <mxRectangle width="78" height="26" as="alternateBounds"/>
                    </mxGeometry>
                </mxCell>
                <mxCell id="79" value="" style="shape=partialRectangle;collapsible=0;dropTarget=0;pointerEvents=0;fillColor=none;top=0;left=0;bottom=0;right=0;points=[[0,0.5],[1,0.5]];portConstraint=eastwest;labelBackgroundColor=#FFFFFF;fontSize=16;fontColor=#0F0F0F;strokeColor=#0F0F0F;align=left;strokeWidth=1;" parent="43" vertex="1">
                    <mxGeometry y="165" width="309" height="22" as="geometry"/>
                </mxCell>
                <mxCell id="80" value="C+" style="shape=partialRectangle;html=1;whiteSpace=wrap;connectable=0;overflow=hidden;fillColor=none;top=0;left=0;bottom=0;right=0;pointerEvents=1;labelBackgroundColor=#FFFFFF;fontSize=16;fontColor=#0F0F0F;strokeColor=#0F0F0F;align=left;strokeWidth=1;" parent="79" vertex="1">
                    <mxGeometry width="78" height="22" as="geometry">
                        <mxRectangle width="78" height="22" as="alternateBounds"/>
                    </mxGeometry>
                </mxCell>
                <mxCell id="81" value="×" style="shape=partialRectangle;html=1;whiteSpace=wrap;connectable=0;overflow=hidden;fillColor=none;top=0;left=0;bottom=0;right=0;pointerEvents=1;labelBackgroundColor=#FFFFFF;fontSize=16;fontColor=#0F0F0F;strokeColor=#0F0F0F;align=left;strokeWidth=1;" parent="79" vertex="1">
                    <mxGeometry x="78" width="77" height="22" as="geometry">
                        <mxRectangle width="77" height="22" as="alternateBounds"/>
                    </mxGeometry>
                </mxCell>
                <mxCell id="82" value="×" style="shape=partialRectangle;html=1;whiteSpace=wrap;connectable=0;overflow=hidden;fillColor=none;top=0;left=0;bottom=0;right=0;pointerEvents=1;labelBackgroundColor=#FFFFFF;fontSize=16;fontColor=#0F0F0F;strokeColor=#0F0F0F;align=left;strokeWidth=1;" parent="79" vertex="1">
                    <mxGeometry x="155" width="76" height="22" as="geometry">
                        <mxRectangle width="76" height="22" as="alternateBounds"/>
                    </mxGeometry>
                </mxCell>
                <mxCell id="83" value="&lt;span&gt;×&lt;/span&gt;" style="shape=partialRectangle;html=1;whiteSpace=wrap;connectable=0;overflow=hidden;fillColor=none;top=0;left=0;bottom=0;right=0;pointerEvents=1;labelBackgroundColor=#FFFFFF;fontSize=16;fontColor=#0F0F0F;strokeColor=#0F0F0F;align=left;strokeWidth=1;" parent="79" vertex="1">
                    <mxGeometry x="231" width="78" height="22" as="geometry">
                        <mxRectangle width="78" height="22" as="alternateBounds"/>
                    </mxGeometry>
                </mxCell>
                <mxCell id="84" value="" style="shape=partialRectangle;collapsible=0;dropTarget=0;pointerEvents=0;fillColor=none;top=0;left=0;bottom=0;right=0;points=[[0,0.5],[1,0.5]];portConstraint=eastwest;labelBackgroundColor=#FFFFFF;fontSize=16;fontColor=#0F0F0F;strokeColor=#0F0F0F;align=left;strokeWidth=1;" parent="43" vertex="1">
                    <mxGeometry y="187" width="309" height="25" as="geometry"/>
                </mxCell>
                <mxCell id="85" value="" style="shape=partialRectangle;html=1;whiteSpace=wrap;connectable=0;overflow=hidden;fillColor=none;top=0;left=0;bottom=0;right=0;pointerEvents=1;labelBackgroundColor=#FFFFFF;fontSize=16;fontColor=#0F0F0F;strokeColor=#0F0F0F;align=left;strokeWidth=1;" parent="84" vertex="1">
                    <mxGeometry width="78" height="25" as="geometry">
                        <mxRectangle width="78" height="25" as="alternateBounds"/>
                    </mxGeometry>
                </mxCell>
                <mxCell id="86" value="" style="shape=partialRectangle;html=1;whiteSpace=wrap;connectable=0;overflow=hidden;fillColor=none;top=0;left=0;bottom=0;right=0;pointerEvents=1;labelBackgroundColor=#FFFFFF;fontSize=16;fontColor=#0F0F0F;strokeColor=#0F0F0F;align=left;strokeWidth=1;" parent="84" vertex="1">
                    <mxGeometry x="78" width="77" height="25" as="geometry">
                        <mxRectangle width="77" height="25" as="alternateBounds"/>
                    </mxGeometry>
                </mxCell>
                <mxCell id="87" value="" style="shape=partialRectangle;html=1;whiteSpace=wrap;connectable=0;overflow=hidden;fillColor=none;top=0;left=0;bottom=0;right=0;pointerEvents=1;labelBackgroundColor=#FFFFFF;fontSize=16;fontColor=#0F0F0F;strokeColor=#0F0F0F;align=left;strokeWidth=1;" parent="84" vertex="1">
                    <mxGeometry x="155" width="76" height="25" as="geometry">
                        <mxRectangle width="76" height="25" as="alternateBounds"/>
                    </mxGeometry>
                </mxCell>
                <mxCell id="88" value="" style="shape=partialRectangle;html=1;whiteSpace=wrap;connectable=0;overflow=hidden;fillColor=none;top=0;left=0;bottom=0;right=0;pointerEvents=1;labelBackgroundColor=#FFFFFF;fontSize=16;fontColor=#0F0F0F;strokeColor=#0F0F0F;align=left;strokeWidth=1;" parent="84" vertex="1">
                    <mxGeometry x="231" width="78" height="25" as="geometry">
                        <mxRectangle width="78" height="25" as="alternateBounds"/>
                    </mxGeometry>
                </mxCell>
                <mxCell id="89" value="" style="shape=partialRectangle;collapsible=0;dropTarget=0;pointerEvents=0;fillColor=none;top=0;left=0;bottom=0;right=0;points=[[0,0.5],[1,0.5]];portConstraint=eastwest;labelBackgroundColor=#FFFFFF;fontSize=16;fontColor=#0F0F0F;strokeColor=#0F0F0F;align=left;strokeWidth=1;" parent="43" vertex="1">
                    <mxGeometry y="212" width="309" height="23" as="geometry"/>
                </mxCell>
                <mxCell id="90" value="" style="shape=partialRectangle;html=1;whiteSpace=wrap;connectable=0;overflow=hidden;fillColor=none;top=0;left=0;bottom=0;right=0;pointerEvents=1;labelBackgroundColor=#FFFFFF;fontSize=16;fontColor=#0F0F0F;strokeColor=#0F0F0F;align=left;strokeWidth=1;" parent="89" vertex="1">
                    <mxGeometry width="78" height="23" as="geometry">
                        <mxRectangle width="78" height="23" as="alternateBounds"/>
                    </mxGeometry>
                </mxCell>
                <mxCell id="91" value="" style="shape=partialRectangle;html=1;whiteSpace=wrap;connectable=0;overflow=hidden;fillColor=none;top=0;left=0;bottom=0;right=0;pointerEvents=1;labelBackgroundColor=#FFFFFF;fontSize=16;fontColor=#0F0F0F;strokeColor=#0F0F0F;align=left;strokeWidth=1;" parent="89" vertex="1">
                    <mxGeometry x="78" width="77" height="23" as="geometry">
                        <mxRectangle width="77" height="23" as="alternateBounds"/>
                    </mxGeometry>
                </mxCell>
                <mxCell id="92" value="" style="shape=partialRectangle;html=1;whiteSpace=wrap;connectable=0;overflow=hidden;fillColor=none;top=0;left=0;bottom=0;right=0;pointerEvents=1;labelBackgroundColor=#FFFFFF;fontSize=16;fontColor=#0F0F0F;strokeColor=#0F0F0F;align=left;strokeWidth=1;" parent="89" vertex="1">
                    <mxGeometry x="155" width="76" height="23" as="geometry">
                        <mxRectangle width="76" height="23" as="alternateBounds"/>
                    </mxGeometry>
                </mxCell>
                <mxCell id="93" value="" style="shape=partialRectangle;html=1;whiteSpace=wrap;connectable=0;overflow=hidden;fillColor=none;top=0;left=0;bottom=0;right=0;pointerEvents=1;labelBackgroundColor=#FFFFFF;fontSize=16;fontColor=#0F0F0F;strokeColor=#0F0F0F;align=left;strokeWidth=1;" parent="89" vertex="1">
                    <mxGeometry x="231" width="78" height="23" as="geometry">
                        <mxRectangle width="78" height="23" as="alternateBounds"/>
                    </mxGeometry>
                </mxCell>
                <mxCell id="94" value="" style="shape=partialRectangle;collapsible=0;dropTarget=0;pointerEvents=0;fillColor=none;top=0;left=0;bottom=0;right=0;points=[[0,0.5],[1,0.5]];portConstraint=eastwest;labelBackgroundColor=#FFFFFF;fontSize=16;fontColor=#0F0F0F;strokeColor=#0F0F0F;align=left;strokeWidth=1;" parent="43" vertex="1">
                    <mxGeometry y="235" width="309" height="25" as="geometry"/>
                </mxCell>
                <mxCell id="95" value="" style="shape=partialRectangle;html=1;whiteSpace=wrap;connectable=0;overflow=hidden;fillColor=none;top=0;left=0;bottom=0;right=0;pointerEvents=1;labelBackgroundColor=#FFFFFF;fontSize=16;fontColor=#0F0F0F;strokeColor=#0F0F0F;align=left;strokeWidth=1;" parent="94" vertex="1">
                    <mxGeometry width="78" height="25" as="geometry">
                        <mxRectangle width="78" height="25" as="alternateBounds"/>
                    </mxGeometry>
                </mxCell>
                <mxCell id="96" value="" style="shape=partialRectangle;html=1;whiteSpace=wrap;connectable=0;overflow=hidden;fillColor=none;top=0;left=0;bottom=0;right=0;pointerEvents=1;labelBackgroundColor=#FFFFFF;fontSize=16;fontColor=#0F0F0F;strokeColor=#0F0F0F;align=left;strokeWidth=1;" parent="94" vertex="1">
                    <mxGeometry x="78" width="77" height="25" as="geometry">
                        <mxRectangle width="77" height="25" as="alternateBounds"/>
                    </mxGeometry>
                </mxCell>
                <mxCell id="97" value="" style="shape=partialRectangle;html=1;whiteSpace=wrap;connectable=0;overflow=hidden;fillColor=none;top=0;left=0;bottom=0;right=0;pointerEvents=1;labelBackgroundColor=#FFFFFF;fontSize=16;fontColor=#0F0F0F;strokeColor=#0F0F0F;align=left;strokeWidth=1;" parent="94" vertex="1">
                    <mxGeometry x="155" width="76" height="25" as="geometry">
                        <mxRectangle width="76" height="25" as="alternateBounds"/>
                    </mxGeometry>
                </mxCell>
                <mxCell id="98" value="" style="shape=partialRectangle;html=1;whiteSpace=wrap;connectable=0;overflow=hidden;fillColor=none;top=0;left=0;bottom=0;right=0;pointerEvents=1;labelBackgroundColor=#FFFFFF;fontSize=16;fontColor=#0F0F0F;strokeColor=#0F0F0F;align=left;strokeWidth=1;" parent="94" vertex="1">
                    <mxGeometry x="231" width="78" height="25" as="geometry">
                        <mxRectangle width="78" height="25" as="alternateBounds"/>
                    </mxGeometry>
                </mxCell>
                <mxCell id="99" value="検索" style="labelPosition=center;verticalLabelPosition=middle;align=center;html=1;shape=mxgraph.basic.shaded_button;dx=3.14;fillColor=#C8D1DE;strokeColor=none;fontSize=15;" parent="1" vertex="1">
                    <mxGeometry x="640" y="400" width="50" height="33.47" as="geometry"/>
                </mxCell>
                <mxCell id="100" value="" style="shape=image;verticalLabelPosition=bottom;labelBackgroundColor=#ffffff;verticalAlign=top;aspect=fixed;imageAspect=0;image=data:image/png,iVBORw0KGgoAAAANSUhEUgAAABIAAAARCAYAAADQWvz5AAAAyElEQVQ4EWP4//vLf2pgBmoYAjIDr0F/fnz8n11YAMYgNj5LcRp06+bl/9NnTf/vFRgExiA2SAyXYRgG/fv1+f/7N0//L1y84L+yrgEKBomB5EBq0A3EMOj7l7f/u/t6/7v5+aMYAjIUJAaSA6nBa9Dd29f+L1qy8L93UDCGITDXgeRAakBqkQ1DcdGatav+a5uYE4VBanEa9Pjh7f87d24lCoPU0t4gqnmNaoEN8jNVoh9kENUSJCwmKM4iMINANFUyLbKBxLABH7f1EH+D5ocAAAAASUVORK5CYII=;" parent="1" vertex="1">
                    <mxGeometry x="710.0000000000001" y="460" width="10.59" height="10" as="geometry"/>
                </mxCell>
                <mxCell id="101" value="" style="shape=image;verticalLabelPosition=bottom;labelBackgroundColor=#ffffff;verticalAlign=top;aspect=fixed;imageAspect=0;image=data:image/png,iVBORw0KGgoAAAANSUhEUgAAABIAAAARCAYAAADQWvz5AAAAyElEQVQ4EWP4//vLf2pgBmoYAjIDr0F/fnz8n11YAMYgNj5LcRp06+bl/9NnTf/vFRgExiA2SAyXYRgG/fv1+f/7N0//L1y84L+yrgEKBomB5EBq0A3EMOj7l7f/u/t6/7v5+aMYAjIUJAaSA6nBa9Dd29f+L1qy8L93UDCGITDXgeRAakBqkQ1DcdGatav+a5uYE4VBanEa9Pjh7f87d24lCoPU0t4gqnmNaoEN8jNVoh9kENUSJCwmKM4iMINANFUyLbKBxLABH7f1EH+D5ocAAAAASUVORK5CYII=;" parent="1" vertex="1">
                    <mxGeometry x="780.0000000000001" y="460" width="10.59" height="10" as="geometry"/>
                </mxCell>
                <mxCell id="102" value="" style="shape=image;verticalLabelPosition=bottom;labelBackgroundColor=#ffffff;verticalAlign=top;aspect=fixed;imageAspect=0;image=data:image/png,iVBORw0KGgoAAAANSUhEUgAAABIAAAARCAYAAADQWvz5AAAAyElEQVQ4EWP4//vLf2pgBmoYAjIDr0F/fnz8n11YAMYgNj5LcRp06+bl/9NnTf/vFRgExiA2SAyXYRgG/fv1+f/7N0//L1y84L+yrgEKBomB5EBq0A3EMOj7l7f/u/t6/7v5+aMYAjIUJAaSA6nBa9Dd29f+L1qy8L93UDCGITDXgeRAakBqkQ1DcdGatav+a5uYE4VBanEa9Pjh7f87d24lCoPU0t4gqnmNaoEN8jNVoh9kENUSJCwmKM4iMINANFUyLbKBxLABH7f1EH+D5ocAAAAASUVORK5CYII=;" parent="1" vertex="1">
                    <mxGeometry x="860.0000000000001" y="460" width="10.59" height="10" as="geometry"/>
                </mxCell>
                <mxCell id="103" value="" style="shape=image;verticalLabelPosition=bottom;labelBackgroundColor=#ffffff;verticalAlign=top;aspect=fixed;imageAspect=0;image=data:image/png,iVBORw0KGgoAAAANSUhEUgAAABIAAAARCAYAAADQWvz5AAAAyElEQVQ4EWP4//vLf2pgBmoYAjIDr0F/fnz8n11YAMYgNj5LcRp06+bl/9NnTf/vFRgExiA2SAyXYRgG/fv1+f/7N0//L1y84L+yrgEKBomB5EBq0A3EMOj7l7f/u/t6/7v5+aMYAjIUJAaSA6nBa9Dd29f+L1qy8L93UDCGITDXgeRAakBqkQ1DcdGatav+a5uYE4VBanEa9Pjh7f87d24lCoPU0t4gqnmNaoEN8jNVoh9kENUSJCwmKM4iMINANFUyLbKBxLABH7f1EH+D5ocAAAAASUVORK5CYII=;" parent="1" vertex="1">
                    <mxGeometry x="938.4100000000001" y="460" width="10.59" height="10" as="geometry"/>
                </mxCell>
                <mxCell id="104" value="在庫に限定する" style="dashed=0;labelPosition=right;align=left;shape=mxgraph.gmdl.radiobutton;strokeColor=#676767;fillColor=#676767;strokeWidth=2;aspect=fixed;sketch=0;" parent="1" vertex="1">
                    <mxGeometry x="720.59" y="417.32" width="16" height="16" as="geometry"/>
                </mxCell>
                <mxCell id="105" style="edgeStyle=orthogonalEdgeStyle;rounded=0;orthogonalLoop=1;jettySize=auto;html=1;exitX=1;exitY=0.5;exitDx=0;exitDy=0;entryX=0.5;entryY=0.5;entryDx=0;entryDy=0;entryPerimeter=0;" parent="1" edge="1">
                    <mxGeometry relative="1" as="geometry">
                        <mxPoint x="670" y="290" as="sourcePoint"/>
                        <mxPoint x="660" y="290" as="targetPoint"/>
                    </mxGeometry>
                </mxCell>
                <mxCell id="106" value="②" style="rounded=0;whiteSpace=wrap;html=1;shadow=0;labelBackgroundColor=none;labelBorderColor=none;sketch=0;fontSize=18;strokeColor=default;strokeWidth=1;fillColor=default;gradientColor=none;align=left;fontStyle=1" parent="1" vertex="1">
                    <mxGeometry x="190" y="429.99" width="20" height="20" as="geometry"/>
                </mxCell>
                <mxCell id="107" value="" style="endArrow=none;html=1;rounded=0;fontSize=15;exitX=1;exitY=0.75;exitDx=0;exitDy=0;fillColor=none;strokeWidth=1;" parent="1" source="106" edge="1">
                    <mxGeometry width="50" height="50" relative="1" as="geometry">
                        <mxPoint x="230" y="389.99" as="sourcePoint"/>
                        <mxPoint x="298.8052660449807" y="430" as="targetPoint"/>
                    </mxGeometry>
                </mxCell>
                <mxCell id="108" value="⑥" style="rounded=0;whiteSpace=wrap;html=1;shadow=0;labelBackgroundColor=none;labelBorderColor=none;sketch=0;fontSize=18;strokeColor=default;strokeWidth=1;fillColor=default;gradientColor=none;align=left;fontStyle=1" parent="1" vertex="1">
                    <mxGeometry x="1060.5" y="480" width="20" height="20" as="geometry"/>
                </mxCell>
                <mxCell id="109" value="" style="endArrow=none;html=1;rounded=0;fontSize=15;exitX=0.25;exitY=1;exitDx=0;exitDy=0;" parent="1" target="108" edge="1">
                    <mxGeometry width="50" height="50" relative="1" as="geometry">
                        <mxPoint x="941.0575000000001" y="470" as="sourcePoint"/>
                        <mxPoint x="760.5" y="390" as="targetPoint"/>
                    </mxGeometry>
                </mxCell>
                <mxCell id="110" value="⑦" style="rounded=0;whiteSpace=wrap;html=1;shadow=0;labelBackgroundColor=none;labelBorderColor=none;sketch=0;fontSize=18;strokeColor=default;strokeWidth=1;fillColor=default;gradientColor=none;align=left;fontStyle=1" parent="1" vertex="1">
                    <mxGeometry x="1050" y="595" width="20" height="20" as="geometry"/>
                </mxCell>
                <mxCell id="111" value="①" style="rounded=0;whiteSpace=wrap;html=1;shadow=0;labelBackgroundColor=none;labelBorderColor=none;sketch=0;fontSize=15;strokeColor=default;strokeWidth=1;fillColor=default;gradientColor=none;align=left;" parent="1" vertex="1">
                    <mxGeometry x="564" y="280" width="20" height="20" as="geometry"/>
                </mxCell>
                <mxCell id="112" value="" style="endArrow=none;html=1;rounded=0;fontSize=15;entryX=0.5;entryY=1;entryDx=0;entryDy=0;" parent="1" target="111" edge="1">
                    <mxGeometry width="50" height="50" relative="1" as="geometry">
                        <mxPoint x="574" y="360" as="sourcePoint"/>
                        <mxPoint x="639" y="380" as="targetPoint"/>
                    </mxGeometry>
                </mxCell>
                <mxCell id="113" value="①" style="rounded=0;whiteSpace=wrap;html=1;shadow=0;labelBackgroundColor=none;labelBorderColor=none;sketch=0;fontSize=18;strokeColor=default;strokeWidth=1;fillColor=default;gradientColor=none;align=left;fontStyle=1" parent="1" vertex="1">
                    <mxGeometry x="564" y="280" width="20" height="20" as="geometry"/>
                </mxCell>
                <mxCell id="114" value="⑤" style="rounded=0;whiteSpace=wrap;html=1;shadow=0;labelBackgroundColor=none;labelBorderColor=none;sketch=0;fontSize=18;strokeColor=default;strokeWidth=1;fillColor=default;gradientColor=none;align=left;fontStyle=1" parent="1" vertex="1">
                    <mxGeometry x="751.5" y="280" width="20" height="20" as="geometry"/>
                </mxCell>
                <mxCell id="115" value="" style="endArrow=none;html=1;rounded=0;fontSize=15;entryX=0.5;entryY=1;entryDx=0;entryDy=0;exitX=0.776;exitY=0.23;exitDx=0;exitDy=0;exitPerimeter=0;" parent="1" target="114" edge="1">
                    <mxGeometry width="50" height="50" relative="1" as="geometry">
                        <mxPoint x="733.0060000000001" y="420.9999999999999" as="sourcePoint"/>
                        <mxPoint x="639" y="340" as="targetPoint"/>
                    </mxGeometry>
                </mxCell>
                <mxCell id="116" value="" style="endArrow=none;html=1;rounded=0;entryX=0;entryY=0.5;entryDx=0;entryDy=0;" parent="1" target="110" edge="1">
                    <mxGeometry width="50" height="50" relative="1" as="geometry">
                        <mxPoint x="859.627450980392" y="567" as="sourcePoint"/>
                        <mxPoint x="670" y="470" as="targetPoint"/>
                    </mxGeometry>
                </mxCell>
                <mxCell id="117" value="①" style="rounded=0;whiteSpace=wrap;html=1;shadow=0;labelBackgroundColor=none;labelBorderColor=none;sketch=0;fontSize=15;strokeColor=default;strokeWidth=1;fillColor=default;gradientColor=none;align=left;" parent="1" vertex="1">
                    <mxGeometry x="450" y="290" width="20" height="20" as="geometry"/>
                </mxCell>
                <mxCell id="118" value="" style="endArrow=none;html=1;rounded=0;fontSize=15;entryX=0.5;entryY=1;entryDx=0;entryDy=0;" parent="1" target="117" edge="1">
                    <mxGeometry width="50" height="50" relative="1" as="geometry">
                        <mxPoint x="461.78996132432303" y="415.28999999999996" as="sourcePoint"/>
                        <mxPoint x="525" y="390" as="targetPoint"/>
                    </mxGeometry>
                </mxCell>
                <mxCell id="119" value="③" style="rounded=0;whiteSpace=wrap;html=1;shadow=0;labelBackgroundColor=none;labelBorderColor=none;sketch=0;fontSize=18;strokeColor=default;strokeWidth=1;fillColor=default;gradientColor=none;align=left;fontStyle=1" parent="1" vertex="1">
                    <mxGeometry x="450" y="290" width="20" height="20" as="geometry"/>
                </mxCell>
                <mxCell id="120" value="①" style="rounded=0;whiteSpace=wrap;html=1;shadow=0;labelBackgroundColor=none;labelBorderColor=none;sketch=0;fontSize=15;strokeColor=default;strokeWidth=1;fillColor=default;gradientColor=none;align=left;" parent="1" vertex="1">
                    <mxGeometry x="650" y="280" width="20" height="20" as="geometry"/>
                </mxCell>
                <mxCell id="121" value="" style="endArrow=none;html=1;rounded=0;fontSize=15;entryX=0.5;entryY=1;entryDx=0;entryDy=0;" parent="1" target="120" edge="1">
                    <mxGeometry width="50" height="50" relative="1" as="geometry">
                        <mxPoint x="661.7899613243233" y="405.28999999999996" as="sourcePoint"/>
                        <mxPoint x="725" y="380" as="targetPoint"/>
                    </mxGeometry>
                </mxCell>
                <mxCell id="122" value="④" style="rounded=0;whiteSpace=wrap;html=1;shadow=0;labelBackgroundColor=none;labelBorderColor=none;sketch=0;fontSize=18;strokeColor=default;strokeWidth=1;fillColor=default;gradientColor=none;align=left;fontStyle=1" parent="1" vertex="1">
                    <mxGeometry x="650" y="280" width="20" height="20" as="geometry"/>
                </mxCell>
            </root>
        </mxGraphModel>
    </diagram>
    <diagram id="LU1uJSENxtgn-csx_99E" name="S06-02ボトルネック新規登録">
        <mxGraphModel dx="349" dy="445" grid="1" gridSize="10" guides="1" tooltips="1" connect="1" arrows="1" fold="1" page="1" pageScale="1" pageWidth="827" pageHeight="1169" math="0" shadow="0">
            <root>
                <mxCell id="aIwGOZAPpcHZK0lGAuw6-0"/>
                <mxCell id="aIwGOZAPpcHZK0lGAuw6-1" parent="aIwGOZAPpcHZK0lGAuw6-0"/>
            </root>
        </mxGraphModel>
    </diagram>
    <diagram id="VbuBDjv671F5p_nlOdsC" name="S06-03ボトルネック編集">
        <mxGraphModel dx="349" dy="445" grid="1" gridSize="10" guides="1" tooltips="1" connect="1" arrows="1" fold="1" page="1" pageScale="1" pageWidth="827" pageHeight="1169" math="0" shadow="0">
            <root>
                <mxCell id="At8U5PF5Pt4MWLP7UrOK-0"/>
                <mxCell id="At8U5PF5Pt4MWLP7UrOK-1" parent="At8U5PF5Pt4MWLP7UrOK-0"/>
            </root>
        </mxGraphModel>
    </diagram>
</mxfile>